<?xml version="1.0" standalone="no"?>
<!DOCTYPE svg PUBLIC "-//W3C//DTD SVG 20010904//EN"
 "http://www.w3.org/TR/2001/REC-SVG-20010904/DTD/svg10.dtd">
<svg version="1.0" xmlns="http://www.w3.org/2000/svg"
 width="317.000000pt" height="371.000000pt" viewBox="0 0 317.000000 371.000000"
 preserveAspectRatio="xMidYMid meet">

<g transform="translate(0.000000,371.000000) scale(0.100000,-0.100000)"
fill="#000000" stroke="none">
<path d="M605 3660 c-3 -5 -12 -10 -20 -10 -29 0 -117 -65 -145 -108 -38 -58
-40 -126 -6 -228 37 -112 40 -107 -184 -319 -148 -138 -220 -258 -220 -363 0
-58 32 -112 91 -156 l39 -30 0 -107 c0 -87 5 -121 25 -184 32 -97 93 -219 143
-287 56 -76 201 -219 285 -281 39 -30 79 -62 87 -71 21 -26 240 -133 345 -168
229 -78 434 -86 665 -27 76 19 146 41 163 50 11 6 21 8 24 5 3 -3 5 -52 4
-109 -2 -118 17 -186 70 -253 55 -69 92 -88 178 -92 42 -2 82 -9 89 -14 7 -6
12 -33 12 -63 0 -118 68 -227 159 -253 22 -7 59 -17 81 -24 30 -8 46 -8 65 0
31 14 32 9 38 -143 5 -127 21 -171 91 -243 49 -52 108 -84 195 -105 69 -18
102 -11 125 25 16 27 -11 47 -94 69 -161 43 -208 122 -198 330 4 87 8 103 28
124 13 14 28 25 33 25 10 0 103 75 130 105 25 29 57 91 57 113 0 26 -40 60
-78 68 -23 5 -46 0 -86 -20 -62 -30 -99 -72 -145 -163 -36 -72 -53 -84 -127
-86 -99 -2 -154 70 -154 201 0 72 1 74 38 107 20 19 42 35 48 35 13 0 65 55
98 104 33 50 35 104 4 134 -36 33 -69 36 -122 12 -58 -28 -90 -65 -134 -158
-19 -40 -44 -78 -55 -83 -11 -6 -45 -9 -75 -7 -48 4 -60 10 -87 40 -18 19 -42
61 -55 94 -42 111 -14 234 86 375 150 211 183 283 223 488 31 154 29 230 -16
461 -28 148 -50 229 -83 305 -5 11 -23 57 -41 103 -66 172 -198 356 -316 444
-65 47 -201 118 -229 118 -11 0 -45 21 -74 46 -124 105 -277 140 -417 94 -55
-18 -157 -67 -240 -116 -30 -18 -32 -18 -51 0 -12 10 -33 43 -48 73 -15 31
-44 73 -65 94 -36 36 -44 39 -93 39 -30 0 -58 -4 -61 -10z m85 -149 c33 -21
53 -43 73 -84 38 -79 68 -100 135 -95 37 3 64 13 95 34 82 58 207 108 277 112
105 6 214 -42 252 -111 18 -34 -2 -97 -57 -177 -96 -141 -95 -177 10 -275 55
-51 65 -65 65 -94 0 -27 -9 -42 -39 -71 -49 -47 -126 -69 -280 -80 -207 -14
-251 -49 -315 -251 -31 -96 -74 -159 -110 -159 -35 0 -62 37 -116 159 -57 130
-80 166 -120 186 -43 22 -80 18 -153 -15 -52 -24 -81 -30 -133 -30 -59 0 -68
3 -95 29 -37 37 -37 63 1 137 34 68 79 118 171 191 86 69 172 160 198 211 35
69 37 117 7 203 -41 118 -33 157 39 194 40 20 43 19 95 -14z m1059 -250 c106
-63 226 -202 298 -346 56 -111 127 -331 159 -493 27 -136 24 -353 -6 -462 -47
-173 -119 -290 -230 -371 -36 -27 -73 -55 -82 -63 -100 -87 -452 -142 -645
-102 -103 22 -226 63 -264 89 -19 12 -69 42 -113 65 -178 96 -392 290 -476
431 -54 91 -99 217 -107 297 -9 96 -3 109 59 123 29 6 76 22 105 35 40 19 54
22 62 12 6 -7 33 -63 60 -125 60 -135 86 -172 144 -200 58 -28 109 -27 168 5
65 36 111 105 151 229 42 131 52 141 159 149 213 17 298 39 375 96 89 65 122
156 93 258 -9 35 -27 61 -72 105 l-58 58 45 67 c39 59 58 96 80 165 8 25 22
22 95 -22z"/>
<path d="M1877 2842 c-21 -23 -21 -57 -2 -113 18 -51 38 -69 76 -69 69 0 78
119 15 183 -23 22 -69 22 -89 -1z"/>
<path d="M1723 2442 c-36 -23 -34 -102 3 -143 32 -36 89 -18 107 33 9 26 -12
86 -36 103 -23 16 -55 19 -74 7z"/>
<path d="M1992 2178 c-17 -17 -15 -103 3 -138 30 -57 96 -48 114 15 11 40 1
88 -25 116 -19 21 -74 25 -92 7z"/>
</g>
</svg>
